<?xml version="1.0" standalone="no"?>
<!DOCTYPE svg PUBLIC "-//W3C//DTD SVG 20010904//EN"
 "http://www.w3.org/TR/2001/REC-SVG-20010904/DTD/svg10.dtd">
<svg version="1.0" xmlns="http://www.w3.org/2000/svg"
 width="769.000000pt" height="770.000000pt" viewBox="0 0 769.000000 770.000000"
 preserveAspectRatio="xMidYMid meet">
<metadata>
Created by potrace 1.16, written by Peter Selinger 2001-2019
</metadata>
<g transform="translate(0.000000,770.000000) scale(0.100000,-0.100000)"
fill="#017489" stroke="none">
<path d="M0 3850 l0 -3850 3845 0 3845 0 0 3850 0 3850 -3845 0 -3845 0 0
-3850z m4714 2085 c414 -94 773 -338 996 -678 50 -76 60 -86 105 -102 83 -30
216 -97 295 -150 97 -65 283 -249 347 -345 134 -200 213 -425 228 -652 l7
-106 50 -33 c64 -41 228 -197 283 -269 117 -154 207 -345 246 -523 27 -121 36
-350 19 -466 -44 -305 -173 -557 -396 -772 -169 -162 -352 -266 -574 -326
-142 -38 -217 -43 -653 -43 -236 0 -427 4 -425 8 2 4 122 225 268 490 l265
482 45 0 c128 1 273 63 371 160 163 160 204 389 109 607 -12 29 -28 57 -34 63
-10 7 -36 -32 -105 -160 -51 -94 -100 -171 -109 -174 -9 -2 -74 -7 -143 -11
l-126 -7 -67 122 c-62 112 -67 125 -56 149 6 14 47 90 91 169 43 78 79 147 79
152 0 12 -105 1 -165 -17 -171 -53 -303 -182 -361 -353 -14 -40 -19 -84 -19
-160 0 -112 15 -174 61 -259 13 -24 24 -49 24 -55 0 -6 -148 -279 -328 -606
l-327 -595 -578 -3 c-390 -1 -577 1 -577 8 0 9 794 1460 1004 1835 l62 110 78
7 c199 18 360 124 446 292 150 296 8 646 -308 760 -60 21 -91 26 -171 26 -159
0 -277 -48 -385 -156 -169 -168 -208 -413 -100 -629 36 -72 36 -72 19 -106
-15 -29 -235 -429 -840 -1529 -62 -113 -161 -293 -220 -400 -59 -107 -112
-201 -117 -207 -8 -10 -115 -13 -475 -13 -438 0 -465 1 -460 18 3 9 122 228
264 487 l260 470 66 7 c190 19 352 118 439 268 66 113 88 280 53 409 -14 55
-64 161 -74 161 -3 0 -46 -75 -96 -166 -49 -91 -96 -169 -105 -174 -8 -4 -73
-11 -145 -15 l-130 -6 -68 124 -68 125 95 171 c52 94 91 172 88 172 -4 1 -33
0 -66 -1 -116 -4 -238 -63 -333 -162 -102 -107 -147 -219 -146 -368 0 -106 17
-175 63 -258 l29 -54 -273 -496 c-150 -274 -294 -536 -320 -584 -72 -133 -66
-129 -161 -113 -297 49 -539 177 -750 397 -176 183 -287 393 -342 648 -25 117
-25 401 -1 515 60 274 187 505 381 692 217 209 456 324 758 363 l96 13 13 66
c124 639 694 1117 1339 1123 l106 0 50 65 c75 97 245 255 354 327 184 122 401
212 601 250 127 24 140 24 340 21 158 -2 202 -7 304 -30z m142 -1761 c63 -58
114 -112 114 -120 0 -19 -67 -291 -75 -303 -3 -6 -13 -11 -21 -11 -8 0 -43 -9
-77 -19 -219 -67 -197 -63 -226 -41 -14 11 -68 61 -118 112 l-93 93 39 155 38
155 144 42 c79 23 148 42 153 42 5 1 60 -47 122 -105z"/>
</g>
</svg>
